<svg width="22" height="23" viewBox="0 0 22 23" fill="none" xmlns="http://www.w3.org/2000/svg">
<path d="M3.3 5.28794C2.09 5.28794 1.1 6.27794 1.1 7.48794C1.1 8.69794 2.09 9.68794 3.3 9.68794C4.51 9.68794 5.5 8.70894 5.5 7.48794C5.5 6.26694 4.521 5.28794 3.3 5.28794ZM11 3.08794C10.5649 3.08794 10.1395 3.21697 9.77775 3.45871C9.41596 3.70045 9.13398 4.04404 8.96747 4.44604C8.80095 4.84803 8.75739 5.29038 8.84227 5.71714C8.92716 6.1439 9.13669 6.5359 9.44437 6.84357C9.75204 7.15125 10.144 7.36078 10.5708 7.44567C10.9976 7.53055 11.4399 7.48699 11.8419 7.32047C12.2439 7.15396 12.5875 6.87198 12.8292 6.51019C13.071 6.14841 13.2 5.72306 13.2 5.28794C13.2 4.06694 12.221 3.08794 11 3.08794ZM18.7 0.887939C17.49 0.887939 16.5 1.87794 16.5 3.08794C16.5 4.29794 17.49 5.28794 18.7 5.28794C19.91 5.28794 20.9 4.30894 20.9 3.08794C20.9 1.86694 19.921 0.887939 18.7 0.887939ZM1.65 10.7879C0.737 10.7879 0 11.5249 0 12.4379V17.3879H1.1V22.8879H5.5V17.3879H6.6V12.4379C6.6 11.5249 5.863 10.7879 4.95 10.7879H1.65ZM9.35 8.58794C8.437 8.58794 7.7 9.32494 7.7 10.2379V15.1879H8.8V20.6879H13.2V15.1879H14.3V10.2379C14.3 9.32494 13.563 8.58794 12.65 8.58794H9.35ZM17.05 6.38794C16.137 6.38794 15.4 7.12494 15.4 8.03794V12.9879H16.5V18.4879H20.9V12.9879H22V8.03794C22 7.12494 21.263 6.38794 20.35 6.38794H17.05Z" fill="white"/>
</svg>
