<svg width="22" height="18" viewBox="0 0 22 18" fill="none" xmlns="http://www.w3.org/2000/svg">
<path d="M18.5088 9.88792H21.5094C22.1646 9.88292 22.1646 8.8927 21.5094 8.8877H18.5088C17.8536 8.8927 17.8536 9.88292 18.5088 9.88792Z" fill="white"/>
<path d="M18.0063 5.88718C18.1363 5.88718 18.2614 5.83717 18.3614 5.74215L19.8617 4.24182C20.0568 4.04678 20.0568 3.73171 19.8617 3.53666C19.6667 3.34162 19.3516 3.34162 19.1566 3.53666L17.6562 5.037C17.3362 5.33206 17.5762 5.90219 18.0063 5.88718Z" fill="white"/>
<path d="M19.1519 15.2441C19.617 15.7042 20.3222 14.9991 19.8571 14.5389L18.3567 13.0386C18.1617 12.8436 17.8466 12.8436 17.6516 13.0386C17.4565 13.2337 17.4565 13.5487 17.6516 13.7438L19.1519 15.2441Z" fill="white"/>
<path d="M11.6465 16.0693C11.8215 16.2344 12.9018 17.5347 13.1168 17.6247C14.087 18.3198 15.5423 17.5497 15.5073 16.3494V2.42632C15.5423 1.21606 14.062 0.445886 13.0918 1.16605C12.3166 1.8412 11.4614 3.06647 10.6263 3.6666C9.0609 4.99189 7.04546 5.74206 5.005 5.87209V12.9036C5.74017 12.9637 6.47533 13.0637 7.18049 13.2787C8.89087 13.7688 10.4512 14.7541 11.6465 16.0693Z" fill="white"/>
<path d="M0.0480319 10.8382C0.253077 11.9984 1.31831 12.8986 2.50358 12.8886H4.00391V5.88708H2.50358C1.12327 5.88708 0.00302203 7.00733 0.00302203 8.38764C0.0180253 8.73772 -0.0369869 10.5331 0.0480319 10.8382Z" fill="white"/>
<path d="M2.50327 13.8887C2.1532 13.8887 1.81812 13.8337 1.50305 13.7437V16.3892C1.55306 18.3647 4.45371 18.3697 4.50372 16.3892V13.8887C4.17364 13.8887 2.85835 13.8887 2.50327 13.8887Z" fill="white"/>
</svg>
