<svg width="20" height="23" viewBox="0 0 20 23" fill="none" xmlns="http://www.w3.org/2000/svg">
<path d="M19.1094 7.76294C19.393 7.76294 19.625 7.53091 19.625 7.24731V5.52856C19.625 5.24497 19.393 5.01294 19.1094 5.01294H18.25V2.95044C18.25 1.81177 17.3262 0.887939 16.1875 0.887939H2.4375C1.29883 0.887939 0.375 1.81177 0.375 2.95044V20.8254C0.375 21.9641 1.29883 22.8879 2.4375 22.8879H16.1875C17.3262 22.8879 18.25 21.9641 18.25 20.8254V18.7629H19.1094C19.393 18.7629 19.625 18.5309 19.625 18.2473V16.5286C19.625 16.245 19.393 16.0129 19.1094 16.0129H18.25V13.2629H19.1094C19.393 13.2629 19.625 13.0309 19.625 12.7473V11.0286C19.625 10.745 19.393 10.5129 19.1094 10.5129H18.25V7.76294H19.1094ZM9.3125 6.38794C10.8293 6.38794 12.0625 7.62114 12.0625 9.13794C12.0625 10.6547 10.8293 11.8879 9.3125 11.8879C7.7957 11.8879 6.5625 10.6547 6.5625 9.13794C6.5625 7.62114 7.7957 6.38794 9.3125 6.38794ZM14.125 16.5629C14.125 17.0184 13.6953 17.3879 13.1625 17.3879H5.4625C4.92969 17.3879 4.5 17.0184 4.5 16.5629V15.7379C4.5 14.3715 5.79336 13.2629 7.3875 13.2629H7.60234C8.13086 13.4821 8.70664 13.6067 9.3125 13.6067C9.91836 13.6067 10.4984 13.4821 11.0227 13.2629H11.2375C12.8316 13.2629 14.125 14.3715 14.125 15.7379V16.5629Z" fill="white"/>
</svg>
