<svg width="22" height="18" viewBox="0 0 22 18" fill="none" xmlns="http://www.w3.org/2000/svg">
<path d="M10.7083 5.21826L3.66696 11.0176V17.2768C3.66696 17.4389 3.73134 17.5943 3.84593 17.7089C3.96053 17.8235 4.11596 17.8879 4.27802 17.8879L8.55776 17.8768C8.71929 17.876 8.87394 17.8113 8.98787 17.6968C9.10181 17.5823 9.16577 17.4273 9.16577 17.2658V13.6105C9.16577 13.4484 9.23015 13.293 9.34475 13.1784C9.45934 13.0638 9.61477 12.9994 9.77683 12.9994H12.2211C12.3832 12.9994 12.5386 13.0638 12.6532 13.1784C12.7678 13.293 12.8322 13.4484 12.8322 13.6105V17.2631C12.8319 17.3435 12.8475 17.4232 12.8781 17.4975C12.9087 17.5719 12.9537 17.6395 13.0105 17.6964C13.0672 17.7534 13.1347 17.7985 13.2089 17.8294C13.2832 17.8602 13.3628 17.8761 13.4432 17.8761L17.7214 17.8879C17.8835 17.8879 18.0389 17.8235 18.1535 17.7089C18.2681 17.5943 18.3325 17.4389 18.3325 17.2768V11.0134L11.2927 5.21826C11.2099 5.15155 11.1068 5.11517 11.0005 5.11517C10.8942 5.11517 10.7911 5.15155 10.7083 5.21826ZM21.8308 9.16001L18.638 6.52823V1.23833C18.638 1.11678 18.5897 1.00021 18.5038 0.914262C18.4178 0.828314 18.3013 0.780029 18.1797 0.780029H16.041C15.9195 0.780029 15.8029 0.828314 15.7169 0.914262C15.631 1.00021 15.5827 1.11678 15.5827 1.23833V4.01141L12.1634 1.19823C11.8353 0.928204 11.4235 0.780569 10.9986 0.780569C10.5736 0.780569 10.1619 0.928204 9.83374 1.19823L0.166323 9.16001C0.119916 9.19837 0.0815212 9.24549 0.0533329 9.29869C0.0251445 9.35189 0.00771497 9.41013 0.00204025 9.47007C-0.00363448 9.53001 0.00255679 9.59048 0.0202603 9.64802C0.0379638 9.70557 0.0668326 9.75906 0.105217 9.80544L1.0791 10.9894C1.11738 11.0359 1.16446 11.0745 1.21766 11.1028C1.27085 11.1311 1.32911 11.1487 1.3891 11.1545C1.44909 11.1602 1.50962 11.1541 1.56725 11.1365C1.62487 11.1188 1.67845 11.09 1.72492 11.0516L10.7083 3.65241C10.7911 3.5857 10.8942 3.54932 11.0005 3.54932C11.1068 3.54932 11.2099 3.5857 11.2927 3.65241L20.2764 11.0516C20.3228 11.09 20.3763 11.1189 20.4339 11.1366C20.4914 11.1543 20.5519 11.1605 20.6118 11.1548C20.6718 11.1491 20.73 11.1317 20.7832 11.1035C20.8364 11.0753 20.8835 11.0369 20.9219 10.9905L21.8958 9.80659C21.9341 9.75994 21.9629 9.70617 21.9803 9.64837C21.9978 9.59057 22.0037 9.52989 21.9977 9.4698C21.9917 9.40972 21.9738 9.35142 21.9452 9.29825C21.9165 9.24509 21.8777 9.19811 21.8308 9.16001Z" fill="white"/>
</svg>
