<svg width="22" height="23" viewBox="0 0 22 23" fill="none" xmlns="http://www.w3.org/2000/svg">
<mask id="mask0_67_1789" style="mask-type:luminance" maskUnits="userSpaceOnUse" x="2" y="2" width="18" height="19">
<path d="M3 3.38794H19C19.2761 3.38794 19.5 3.6118 19.5 3.88794V19.8879C19.5 20.1641 19.2761 20.3879 19 20.3879H3C2.72386 20.3879 2.5 20.1641 2.5 19.8879V3.88794C2.5 3.6118 2.72386 3.38794 3 3.38794Z" fill="white" stroke="white"/>
</mask>
<g mask="url(#mask0_67_1789)">
<path d="M19 2.88794H3C2.44772 2.88794 2 3.33565 2 3.88794V19.8879C2 20.4402 2.44772 20.8879 3 20.8879H19C19.5523 20.8879 20 20.4402 20 19.8879V3.88794C20 3.33565 19.5523 2.88794 19 2.88794Z" stroke="white" stroke-width="4"/>
</g>
<path d="M16.5 14.3879V9.38794H21.5V14.3879H16.5Z" fill="white" stroke="white"/>
<path d="M0.5 14.3879V9.38794H5.5V14.3879H0.5Z" fill="white" stroke="white"/>
<path d="M11 1.38794C12.3807 1.38794 13.5 2.50723 13.5 3.88794C13.5 5.26865 12.3807 6.38794 11 6.38794C9.61929 6.38794 8.5 5.26865 8.5 3.88794C8.5 2.50723 9.61929 1.38794 11 1.38794Z" fill="white" stroke="white"/>
<path d="M11 17.3879C12.3807 17.3879 13.5 18.5072 13.5 19.8879C13.5 21.2687 12.3807 22.3879 11 22.3879C9.61929 22.3879 8.5 21.2687 8.5 19.8879C8.5 18.5072 9.61929 17.3879 11 17.3879Z" fill="white" stroke="white"/>
</svg>
