<svg width="22" height="22" viewBox="0 0 22 22" fill="none" xmlns="http://www.w3.org/2000/svg">
<path d="M3.29102 5.19411C4.07578 5.1259 5.0683 5.1259 6.40176 5.1259H8.2642C10.8718 5.1259 12.1757 5.1259 13.1717 5.63602C14.0478 6.08472 14.7601 6.80071 15.2065 7.68135C15.7139 8.68251 15.7139 9.9931 15.7139 12.6143V15.1405C15.7139 15.4023 15.7139 15.5332 15.7087 15.6438C15.6273 17.3725 14.6177 18.8533 13.1686 19.5949L14.605 20.6195C15.5426 21.2883 16.7748 20.3225 16.3468 19.2541C16.0436 18.4973 16.6018 17.6742 17.418 17.6742H18.0483C20.2306 17.6742 21.9996 15.9076 21.9996 13.7283V9.30478C21.9996 6.37523 21.9996 4.91046 21.4287 3.79152C20.9266 2.80727 20.1252 2.00706 19.1396 1.50555C18.0191 0.935425 16.5523 0.935425 13.6187 0.935425H11.5235C8.58985 0.935425 7.12304 0.935425 6.00256 1.50555C5.01695 2.00706 4.21561 2.80727 3.71343 3.79152C3.50695 4.19618 3.37515 4.64607 3.29102 5.19411Z" fill="white"/>
<path fill-rule="evenodd" clip-rule="evenodd" d="M14.2229 8.4284C14.667 9.31177 14.667 10.4682 14.667 12.781V15.01C14.667 15.2409 14.667 15.3565 14.6624 15.454C14.5631 17.5812 12.8842 19.2831 10.7856 19.3837C10.6893 19.3884 10.5623 19.3884 10.3081 19.3884L10.2428 19.3885C9.41154 19.3938 8.60175 19.6569 7.9222 20.1422L7.87899 20.1734L5.75172 21.7137C5.02247 22.2417 4.0642 21.4791 4.39702 20.6358C4.63279 20.0383 4.19871 19.3884 3.56388 19.3884H3.07357C1.37629 19.3884 0.000366211 17.9937 0.000366211 16.2733V12.781C0.000366211 10.4682 0.000366211 9.31177 0.444414 8.4284C0.835009 7.65136 1.45826 7.01961 2.22485 6.62368C3.09634 6.17358 4.23719 6.17358 6.51888 6.17358H8.14852C10.4302 6.17358 11.5711 6.17358 12.4425 6.62368C13.2092 7.01961 13.8324 7.65136 14.2229 8.4284ZM4.19084 14.5545C4.76942 14.5545 5.23846 14.0855 5.23846 13.5069C5.23846 12.9283 4.76942 12.4593 4.19084 12.4593C3.61226 12.4593 3.14322 12.9283 3.14322 13.5069C3.14322 14.0855 3.61226 14.5545 4.19084 14.5545ZM8.38132 13.5069C8.38132 14.0855 7.91228 14.5545 7.3337 14.5545C6.75512 14.5545 6.28608 14.0855 6.28608 13.5069C6.28608 12.9283 6.75512 12.4593 7.3337 12.4593C7.91228 12.4593 8.38132 12.9283 8.38132 13.5069ZM10.4766 14.5545C11.0552 14.5545 11.5242 14.0855 11.5242 13.5069C11.5242 12.9283 11.0552 12.4593 10.4766 12.4593C9.89797 12.4593 9.42894 12.9283 9.42894 13.5069C9.42894 14.0855 9.89797 14.5545 10.4766 14.5545Z" fill="white"/>
</svg>
