<svg width="22" height="23" viewBox="0 0 22 23" fill="none" xmlns="http://www.w3.org/2000/svg">
<path d="M11.0024 15.7379C9.98135 15.7379 9.00209 15.3323 8.28007 14.6103C7.55806 13.8883 7.15243 12.909 7.15243 11.8879C7.15243 10.8669 7.55806 9.8876 8.28007 9.16558C9.00209 8.44356 9.98135 8.03794 11.0024 8.03794C12.0235 8.03794 13.0028 8.44356 13.7248 9.16558C14.4468 9.8876 14.8524 10.8669 14.8524 11.8879C14.8524 12.909 14.4468 13.8883 13.7248 14.6103C13.0028 15.3323 12.0235 15.7379 11.0024 15.7379ZM19.1754 12.9549C19.2194 12.6029 19.2524 12.2509 19.2524 11.8879C19.2524 11.5249 19.2194 11.1619 19.1754 10.7879L21.4964 8.99494C21.7054 8.82994 21.7604 8.53294 21.6284 8.29094L19.4284 4.48494C19.2964 4.24294 18.9994 4.14394 18.7574 4.24294L16.0184 5.34294C15.4464 4.91394 14.8524 4.53994 14.1594 4.26494L13.7524 1.34994C13.7301 1.22038 13.6626 1.10291 13.5619 1.01835C13.4613 0.933785 13.3339 0.887588 13.2024 0.887941H8.80243C8.52743 0.887941 8.29643 1.08594 8.25243 1.34994L7.84543 4.26494C7.15243 4.53994 6.55843 4.91394 5.98643 5.34294L3.24743 4.24294C3.00543 4.14394 2.70844 4.24294 2.57644 4.48494L0.376436 8.29094C0.233436 8.53294 0.299436 8.82994 0.508436 8.99494L2.82944 10.7879C2.78544 11.1619 2.75243 11.5249 2.75243 11.8879C2.75243 12.2509 2.78544 12.6029 2.82944 12.9549L0.508436 14.7809C0.299436 14.9459 0.233436 15.2429 0.376436 15.4849L2.57644 19.2909C2.70844 19.5329 3.00543 19.6209 3.24743 19.5329L5.98643 18.4219C6.55843 18.8619 7.15243 19.2359 7.84543 19.5109L8.25243 22.4259C8.29643 22.6899 8.52743 22.8879 8.80243 22.8879H13.2024C13.4774 22.8879 13.7084 22.6899 13.7524 22.4259L14.1594 19.5109C14.8524 19.2249 15.4464 18.8619 16.0184 18.4219L18.7574 19.5329C18.9994 19.6209 19.2964 19.5329 19.4284 19.2909L21.6284 15.4849C21.7604 15.2429 21.7054 14.9459 21.4964 14.7809L19.1754 12.9549Z" fill="white"/>
</svg>
