<svg width="22" height="23" viewBox="0 0 22 23" fill="none" xmlns="http://www.w3.org/2000/svg">
<path d="M20.0514 0.887939H1.94851C1.11535 0.887939 0.439941 1.59149 0.439941 2.45937V7.95937C0.439941 8.82724 1.11535 9.5308 1.94851 9.5308H20.0514C20.8845 9.5308 21.5599 8.82724 21.5599 7.95937V2.45937C21.5599 1.59149 20.8845 0.887939 20.0514 0.887939Z" fill="white"/>
<path d="M9.49137 11.8881H1.94851C1.11535 11.8881 0.439941 12.5916 0.439941 13.4595V21.3166C0.439941 22.1845 1.11535 22.8881 1.94851 22.8881H9.49137C10.3245 22.8881 10.9999 22.1845 10.9999 21.3166V13.4595C10.9999 12.5916 10.3245 11.8881 9.49137 11.8881Z" fill="white"/>
<path d="M20.8056 12.6737H14.017C13.8169 12.6737 13.6251 12.7565 13.4836 12.9038C13.3422 13.0512 13.2627 13.251 13.2627 13.4594C13.2627 13.6678 13.3422 13.8677 13.4836 14.015C13.6251 14.1624 13.8169 14.2451 14.017 14.2451H20.8056C21.0056 14.2451 21.1975 14.1624 21.3389 14.015C21.4804 13.8677 21.5598 13.6678 21.5598 13.4594C21.5598 13.251 21.4804 13.0512 21.3389 12.9038C21.1975 12.7565 21.0056 12.6737 20.8056 12.6737Z" fill="white"/>
<path d="M20.8056 16.6018H14.017C13.8169 16.6018 13.6251 16.6846 13.4836 16.8319C13.3422 16.9793 13.2627 17.1791 13.2627 17.3875C13.2627 17.5959 13.3422 17.7958 13.4836 17.9431C13.6251 18.0905 13.8169 18.1732 14.017 18.1732H20.8056C21.0056 18.1732 21.1975 18.0905 21.3389 17.9431C21.4804 17.7958 21.5598 17.5959 21.5598 17.3875C21.5598 17.1791 21.4804 16.9793 21.3389 16.8319C21.1975 16.6846 21.0056 16.6018 20.8056 16.6018Z" fill="white"/>
<path d="M20.8056 20.5304H14.017C13.8169 20.5304 13.6251 20.6132 13.4836 20.7605C13.3422 20.9079 13.2627 21.1077 13.2627 21.3161C13.2627 21.5245 13.3422 21.7243 13.4836 21.8717C13.6251 22.019 13.8169 22.1018 14.017 22.1018H20.8056C21.0056 22.1018 21.1975 22.019 21.3389 21.8717C21.4804 21.7243 21.5598 21.5245 21.5598 21.3161C21.5598 21.1077 21.4804 20.9079 21.3389 20.7605C21.1975 20.6132 21.0056 20.5304 20.8056 20.5304Z" fill="white"/>
</svg>
