<?xml version="1.0" encoding="UTF-8"?>
<svg id="icons" xmlns="http://www.w3.org/2000/svg" viewBox="0 0 200 200">
  <defs>
    <style>
      .cls-1 {
        fill: #fff;
      }

      .cls-2 {
        fill: #fcb026;
      }

      .cls-3 {
        opacity: 0;
      }
    </style>
  </defs>
  <rect class="cls-3" x="-.02" y=".09" width="200.04" height="199.82"/>
  <g>
    <path class="cls-2" d="M101.17,38.98h0m-1.17,.96c.13,.12,.25,.23,.36,.33,1.58,1.43,3.55,3.21,6.33,3.96,.92,.25,1.91,.37,2.94,.37,1.72,0,3.28-.33,4.65-.62,.1-.02,.21-.04,.32-.07,.04,.12,.08,.24,.11,.35,.66,2.05,1.49,4.61,3.55,6.67,2.06,2.06,4.62,2.89,6.67,3.55,.11,.03,.23,.07,.35,.11-.02,.11-.05,.22-.07,.32-.45,2.12-1.01,4.76-.25,7.59,.74,2.78,2.52,4.75,3.96,6.33,.1,.11,.21,.23,.33,.36-.12,.13-.23,.25-.33,.36-1.43,1.58-3.21,3.55-3.96,6.33-.76,2.83-.2,5.47,.25,7.59,.02,.1,.04,.21,.07,.32-.12,.04-.24,.08-.35,.11-2.05,.66-4.61,1.49-6.67,3.55-2.06,2.06-2.89,4.62-3.55,6.67-.03,.11-.07,.23-.11,.35-.11-.02-.22-.05-.32-.07-1.38-.29-2.94-.62-4.65-.62-1.03,0-2.02,.12-2.94,.37-2.78,.74-4.75,2.52-6.33,3.96-.11,.1-.23,.21-.36,.33-.13-.12-.25-.23-.36-.33-1.58-1.43-3.55-3.21-6.33-3.96-.92-.25-1.91-.37-2.94-.37-1.72,0-3.28,.33-4.65,.62-.1,.02-.21,.04-.32,.07-.04-.12-.08-.24-.11-.35-.66-2.05-1.49-4.61-3.55-6.67-2.06-2.06-4.62-2.89-6.67-3.55-.11-.03-.23-.07-.35-.11,.02-.11,.05-.22,.07-.32,.45-2.12,1.01-4.76,.25-7.59-.74-2.78-2.52-4.75-3.96-6.33-.1-.11-.21-.23-.33-.36,.12-.13,.23-.25,.33-.36,1.43-1.58,3.21-3.55,3.96-6.33,.76-2.83,.2-5.47-.25-7.59-.02-.1-.04-.21-.07-.32,.12-.04,.24-.08,.35-.11,2.05-.66,4.61-1.49,6.67-3.55,2.06-2.06,2.89-4.62,3.55-6.67,.03-.11,.07-.23,.11-.35,.11,.02,.22,.05,.32,.07,1.38,.29,2.94,.62,4.65,.62,1.03,0,2.02-.12,2.94-.37,2.78-.74,4.75-2.52,6.33-3.96,.11-.1,.23-.21,.36-.33m0-7.2c-3.08,0-5.53,4.46-8.37,5.22-.4,.11-.82,.15-1.27,.15-2.07,0-4.53-.96-6.58-.96-.74,0-1.42,.13-2.01,.47-2.61,1.51-2.51,6.6-4.63,8.71-2.12,2.12-7.2,2.02-8.71,4.63-1.49,2.57,1.13,6.92,.34,9.86-.76,2.84-5.22,5.29-5.22,8.37s4.46,5.53,5.22,8.37c.78,2.94-1.83,7.29-.34,9.86,1.51,2.61,6.6,2.51,8.71,4.63,2.12,2.12,2.02,7.2,4.63,8.71,.59,.34,1.27,.47,2.01,.47,2.04,0,4.51-.96,6.58-.96,.44,0,.87,.04,1.27,.15,2.84,.76,5.29,5.22,8.37,5.22s5.53-4.46,8.37-5.22c.4-.11,.82-.15,1.27-.15,2.07,0,4.53,.96,6.58,.96,.74,0,1.42-.13,2.01-.47,2.61-1.51,2.51-6.6,4.63-8.71,2.12-2.12,7.2-2.02,8.71-4.63,1.49-2.57-1.13-6.92-.34-9.86,.76-2.84,5.22-5.29,5.22-8.37s-4.46-5.53-5.22-8.37c-.78-2.94,1.83-7.29,.34-9.86-1.51-2.61-6.6-2.51-8.71-4.63-2.12-2.12-2.02-7.2-4.63-8.71-.59-.34-1.27-.47-2.01-.47-2.04,0-4.51,.96-6.58,.96-.44,0-.87-.04-1.27-.15-2.84-.76-5.29-5.22-8.37-5.22h0Z"/>
    <polygon class="cls-2" points="96.12 79.66 86.63 70.11 91.23 65.54 96.12 70.47 107.57 58.95 112.17 63.52 96.12 79.66"/>
  </g>
  <g>
    <path class="cls-1" d="M70.01,136.73h-3.63l-.97-2.66h-5.88l-1.1,2.66h-3.64l5.96-13.66h3.94l5.32,13.66Zm-5.47-5l-1.92-5.2-2.12,5.2h4.04Z"/>
    <path class="cls-1" d="M80.51,132.11c0,1.44-.41,2.6-1.22,3.49-.81,.89-1.87,1.33-3.16,1.33-1,0-1.85-.29-2.56-.88v5.22h-2.9v-13.8h2.8v.76c.76-.64,1.65-.96,2.66-.96,1.29,0,2.35,.45,3.16,1.34,.81,.89,1.22,2.06,1.22,3.5Zm-3.04-.02c0-.77-.21-1.4-.61-1.87s-.94-.71-1.61-.71c-.57,0-1.13,.19-1.68,.58v3.96c.51,.39,1.04,.58,1.6,.58,.71,0,1.27-.23,1.68-.68s.62-1.07,.62-1.86Z"/>
    <path class="cls-1" d="M91.95,132.11c0,1.44-.41,2.6-1.22,3.49-.81,.89-1.87,1.33-3.16,1.33-1,0-1.85-.29-2.56-.88v5.22h-2.9v-13.8h2.8v.76c.76-.64,1.65-.96,2.66-.96,1.29,0,2.35,.45,3.16,1.34,.81,.89,1.22,2.06,1.22,3.5Zm-3.04-.02c0-.77-.21-1.4-.61-1.87s-.94-.71-1.61-.71c-.57,0-1.13,.19-1.68,.58v3.96c.51,.39,1.04,.58,1.6,.58,.71,0,1.27-.23,1.68-.68s.62-1.07,.62-1.86Z"/>
    <path class="cls-1" d="M101.23,128.01l-.78,2.66c-.56-.44-1.07-.66-1.54-.66-.55,0-1.04,.24-1.48,.73-.44,.49-.76,1.16-.96,2.01v3.98h-2.92v-9.26h2.92v2.48c.93-1.75,1.91-2.62,2.92-2.62,.52,0,1.13,.23,1.84,.68Z"/>
    <path class="cls-1" d="M111.73,132.11c0,1.41-.47,2.57-1.41,3.46s-2.17,1.34-3.69,1.34-2.75-.45-3.68-1.34c-.93-.89-1.4-2.05-1.4-3.46s.47-2.57,1.41-3.47c.94-.9,2.16-1.35,3.67-1.35s2.75,.45,3.69,1.35c.94,.9,1.41,2.06,1.41,3.47Zm-3.02,0c0-.79-.19-1.43-.58-1.91-.39-.48-.89-.73-1.5-.73s-1.11,.24-1.5,.73c-.39,.48-.58,1.12-.58,1.91s.19,1.45,.57,1.92c.38,.47,.88,.71,1.51,.71s1.13-.24,1.51-.71c.38-.47,.57-1.11,.57-1.92Z"/>
    <path class="cls-1" d="M121.99,127.47l-4.02,9.44h-1.78l-4.28-9.44h3.08l2.04,5.02,1.92-5.02h3.04Z"/>
    <path class="cls-1" d="M131.89,132.61h-6.56c0,.75,.25,1.34,.76,1.77s1.19,.65,2.06,.65c1.16,0,2.33-.41,3.52-1.24v1.92c-1.25,.81-2.67,1.22-4.24,1.22s-2.87-.44-3.76-1.32-1.34-2.09-1.34-3.62c0-1.43,.44-2.57,1.33-3.42,.89-.85,2.06-1.28,3.53-1.28s2.6,.46,3.44,1.39c.84,.93,1.26,2.2,1.26,3.83v.1Zm-2.94-1.42c-.05-.6-.24-1.07-.55-1.41s-.71-.51-1.2-.51c-1.09,0-1.71,.64-1.87,1.92h3.62Z"/>
    <path class="cls-1" d="M142.81,136.73h-2.8v-.76c-.76,.64-1.65,.96-2.68,.96-1.29,0-2.34-.44-3.15-1.33s-1.21-2.05-1.21-3.49,.4-2.61,1.21-3.5c.81-.89,1.86-1.34,3.15-1.34,1,0,1.85,.29,2.56,.88v-5.08h2.92v13.66Zm-2.92-2.64v-3.96c-.51-.39-1.04-.58-1.6-.58-.71,0-1.27,.23-1.68,.69s-.62,1.08-.62,1.87,.21,1.39,.62,1.86,.95,.7,1.62,.7c.56,0,1.11-.19,1.66-.58Z"/>
    <path class="cls-1" d="M77.72,156.11c0,1.49-.48,2.67-1.45,3.52-.97,.85-2.33,1.28-4.09,1.28-1.27,0-2.71-.24-4.34-.72v-13.12h2.9v5.08c.72-.59,1.59-.88,2.62-.88,1.35,0,2.41,.43,3.19,1.3,.78,.87,1.17,2.05,1.17,3.54Zm-3.08,0c0-.8-.21-1.43-.62-1.88-.41-.45-.97-.68-1.68-.68-.56,0-1.09,.21-1.6,.62v3.9c.51,.4,1.04,.6,1.6,.6,.71,0,1.27-.23,1.68-.69s.62-1.08,.62-1.87Z"/>
    <path class="cls-1" d="M88.04,151.47l-6.24,13.8h-3.05l2.73-6.03-3.52-7.77h3.12l1.88,4.53,2-4.53h3.07Z"/>
    <path class="cls-1" d="M103.34,156.93c0,2.69-1.57,4.04-4.72,4.04s-4.91-1.45-5.02-4.36h3.32c.11,1.05,.67,1.58,1.7,1.58,.87,0,1.3-.44,1.3-1.32v-9.8h3.42v9.86Z"/>
    <path class="cls-1" d="M118.06,159.59c-1.61,.92-3.35,1.38-5.22,1.38-2.19,0-3.95-.64-5.3-1.92-1.41-1.33-2.12-3.05-2.12-5.14s.7-3.81,2.11-5.12c1.41-1.31,3.28-1.96,5.63-1.96,1.65,0,3.25,.37,4.78,1.12v3.2c-1.51-.97-3.03-1.46-4.56-1.46-1.38,0-2.46,.38-3.25,1.13-.79,.75-1.19,1.78-1.19,3.09s.38,2.28,1.13,3.05c.75,.77,1.77,1.15,3.05,1.15,1.64,0,3.29-.57,4.94-1.72v3.2Z"/>
    <path class="cls-1" d="M131.58,156.81c0,2.61-1.8,3.92-5.4,3.92h-6.1v-13.66h5.04c3.63,0,5.44,1.17,5.44,3.5,0,1.24-.61,2.13-1.82,2.68,1.89,.6,2.84,1.79,2.84,3.56Zm-4.46-5.76c0-1.04-.61-1.56-1.84-1.56h-1.76v2.98h1.76c1.23,0,1.84-.47,1.84-1.42Zm.84,5.58c0-1.15-.83-1.72-2.48-1.72h-1.96v3.32h1.98c.87,0,1.49-.12,1.88-.36s.58-.65,.58-1.24Z"/>
  </g>
</svg>