<svg width="32" height="32" viewBox="0 0 32 32" fill="none" xmlns="http://www.w3.org/2000/svg">
<path d="M28.7989 16.2187H15.7812V3.20099C15.7812 3.041 15.6503 2.91009 15.4903 2.91009H14.5449C12.6347 2.90696 10.7429 3.28156 8.97805 4.01232C7.21324 4.74308 5.61034 5.81558 4.26157 7.16812C2.93329 8.49231 1.87493 10.0619 1.14532 11.7898C0.386078 13.5819 -0.00351082 15.5088 -9.98649e-05 17.455C-0.0032277 19.3651 0.371364 21.257 1.10212 23.0218C1.83288 24.7866 2.90539 26.3895 4.25794 27.7383C5.59244 29.0728 7.14875 30.1237 8.8796 30.8546C10.6717 31.6138 12.5986 32.0034 14.5449 32C16.455 32.0031 18.3469 31.6285 20.1117 30.8978C21.8765 30.167 23.4794 29.0945 24.8281 27.7419C26.1626 26.4074 27.2135 24.8511 27.9444 23.1203C28.7036 21.3282 29.0932 19.4013 29.0898 17.455V16.5096C29.0898 16.3496 28.9589 16.2187 28.7989 16.2187ZM23.0427 26.0293C21.9168 27.1465 20.5814 28.0305 19.1132 28.6307C17.645 29.231 16.0728 29.5357 14.4867 29.5273C11.2831 29.5128 8.27234 28.2583 6.00697 25.9929C3.72704 23.713 2.47254 20.6804 2.47254 17.455C2.47254 14.2297 3.72704 11.1971 6.00697 8.91715C7.99235 6.93177 10.5486 5.7209 13.3085 5.44455V18.6914H26.5554C26.2754 21.4658 25.0536 24.0366 23.0427 26.0293ZM31.9988 14.197L31.9043 13.1715C31.5952 9.82258 30.108 6.66269 27.7153 4.27732C25.321 1.88757 22.1676 0.408601 18.7993 0.0956465L17.7702 0.00110442C17.5993 -0.0134405 17.4538 0.117464 17.4538 0.288367V14.2551C17.4538 14.4151 17.5848 14.546 17.7447 14.546L31.7079 14.5097C31.8788 14.5097 32.0133 14.3642 31.9988 14.197ZM19.9192 12.0807V2.7501C22.2098 3.22953 24.3119 4.36392 25.9699 6.01544C27.6317 7.67356 28.7698 9.78258 29.2425 12.0552L19.9192 12.0807Z" fill="#7D6ADB"/>
</svg>
